g Bolt
v 0.033932 -0.008337 -0.004255
v 0.013348 -0.008337 -0.004255
v 0.013348 -0.046197 -0.004255
v 0.033932 -0.046197 -0.004255
v 0.033932 0.029524 -0.004255
v 0.013348 0.029524 -0.004255
v 0.036466 -0.004375 -0.007401
v 0.036466 -0.004375 0.007863
v 0.036466 0.040593 0.007863
v 0.036466 0.040593 -0.007401
v 0.036466 -0.049343 -0.007401
v 0.036466 -0.049343 0.007863
v 0.013348 -0.046197 -0.004255
v 0.013348 -0.046197 0.003885
v 0.033932 -0.046197 0.003885
v 0.033932 -0.046197 -0.004255
v 0.013531 -0.049343 0.010779
v 0.01588 -0.049343 0.018568
v 0.03038 -0.049343 0.018568
v 0.033471 -0.049343 0.010779
v 0.010814 -0.049343 0.007863
v 0.036466 -0.049343 0.007863
v 0.013348 -0.049343 0.003885
v 0.010814 -0.049343 -0.007401
v 0.013348 -0.049343 -0.007401
v 0.033932 -0.049343 0.003885
v 0.036466 -0.049343 -0.007401
v 0.033932 -0.049343 -0.007401
v 0.008394 -0.049343 0.006764
v 0.008394 -0.049343 -0.007401
v 0.015879 -0.004375 0.018568
v 0.03038 -0.004375 0.018568
v 0.03038 -0.049343 0.018568
v 0.01588 -0.049343 0.018568
v 0.015879 0.030866 0.018568
v 0.03038 0.030866 0.018568
v 0.033471 -0.049343 0.010779
v 0.033471 -0.004375 0.010779
v 0.036466 -0.004375 0.007863
v 0.036466 -0.049343 0.007863
v 0.033471 0.037943 0.010779
v 0.036466 0.040593 0.007863
v 0.013531 0.037943 0.010779
v 0.013531 -0.004375 0.010779
v 0.010814 -0.004375 0.007863
v 0.010814 0.040593 0.007863
v 0.010814 -0.049343 0.007863
v 0.013531 -0.049343 0.010779
v 0.036466 0.040593 -0.007401
v 0.036466 0.040593 0.007863
v 0.010814 0.040593 0.007863
v 0.010814 0.040593 -0.007401
v 0.013531 0.037943 0.010779
v 0.033471 0.037943 0.010779
v 0.03038 0.030866 0.018568
v 0.015879 0.030866 0.018568
v 0.010814 0.040593 0.007863
v 0.036466 0.040593 0.007863
v 0.010814 -0.004375 -0.007401
v 0.010814 -0.004375 0.007863
v 0.008394 -0.010316 0.006764
v 0.008394 -0.010316 -0.007401
v 0.013348 -0.00991 -0.007401
v 0.010814 -0.004375 -0.007401
v 0.010814 -0.049343 -0.007401
v 0.008394 -0.010316 -0.007401
v 0.013348 -0.049343 -0.007401
v 0.013348 0.029524 -0.007401
v 0.010814 0.040593 -0.007401
v 0.036466 0.040593 -0.007401
v 0.033932 0.029524 -0.007401
v 0.036466 -0.004375 -0.007401
v 0.033932 -0.00991 -0.007401
v 0.036466 -0.049343 -0.007401
v 0.033932 -0.049343 -0.007401
v 0.008394 -0.049343 -0.007401
v 0.013348 -0.046197 -0.004255
v 0.013348 -0.008337 -0.004255
v 0.013348 -0.00991 -0.007401
v 0.013348 -0.049343 -0.007401
v 0.013348 -0.049343 0.003885
v 0.013348 -0.046197 0.003885
v 0.013348 0.029524 -0.007401
v 0.013348 0.029524 -0.004255
v 0.033932 -0.008337 -0.004255
v 0.033932 -0.00991 -0.007401
v 0.033932 0.029524 -0.007401
v 0.033932 0.029524 -0.004255
v 0.033932 -0.046197 -0.004255
v 0.033932 -0.049343 -0.007401
v 0.033932 -0.049343 0.003885
v 0.033932 -0.046197 0.003885
v 0.013348 0.029524 -0.004255
v 0.033932 0.029524 -0.004255
v 0.033932 0.029524 -0.007401
v 0.013348 0.029524 -0.007401
v 0.033932 -0.046197 0.003885
v 0.013348 -0.046197 0.003885
v 0.013348 -0.049343 0.003885
v 0.033932 -0.049343 0.003885
v 0.010814 0.040593 0.007863
v 0.010814 -0.004375 0.007863
v 0.010814 -0.004375 -0.007401
v 0.010814 0.040593 -0.007401
v 0.008394 -0.010316 0.006764
v 0.008394 -0.037298 0.004342
v 0.008394 -0.037298 -0.001136
v 0.008394 -0.010316 -0.007401
v 0.008394 -0.049343 -0.007401
v 0.008394 -0.040264 -0.001136
v 0.008394 -0.049343 0.006764
v 0.008394 -0.040264 0.004342
v 0.010814 -0.049343 0.007863
v 0.008394 -0.049343 0.006764
v 0.008394 -0.010316 0.006764
v 0.010814 -0.004375 0.007863
v 0.03038 0.030866 0.018568
v 0.033471 0.037943 0.010779
v 0.033471 -0.004375 0.010779
v 0.03038 -0.004375 0.018568
v 0.03038 -0.049343 0.018568
v 0.033471 -0.049343 0.010779
v 0.015879 -0.004375 0.018568
v 0.01588 -0.049343 0.018568
v 0.013531 -0.049343 0.010779
v 0.013531 -0.004375 0.010779
v 0.015879 0.030866 0.018568
v 0.013531 0.037943 0.010779
v 0.001042 -0.040476 0.004342
v 0.001042 -0.040476 -0.001136
v -0.002118 -0.040856 -0.002307
v -0.002118 -0.040856 0.006395
v 0.008394 -0.040264 -0.001136
v 0.001042 -0.040476 -0.001136
v 0.001042 -0.040476 0.004342
v 0.008394 -0.040264 0.004342
v -0.002118 -0.036482 0.006395
v -0.007878 -0.036482 0.006395
v -0.007878 -0.036482 -0.002307
v -0.002118 -0.036482 -0.002307
v -0.002118 -0.036482 0.006395
v -0.002118 -0.040856 0.006395
v -0.007878 -0.040856 0.006395
v -0.007878 -0.036482 0.006395
v -0.015679 -0.038309 0.006395
v -0.014687 -0.04257 0.006395
v 0.001042 -0.040476 -0.001136
v 0.008394 -0.040264 -0.001136
v 0.008394 -0.037298 -0.001136
v 0.001042 -0.036862 -0.001136
v 0.001042 -0.036862 -0.001136
v -0.002118 -0.036482 -0.002307
v -0.002118 -0.040856 -0.002307
v 0.001042 -0.040476 -0.001136
v -0.018807 -0.039038 0.00033
v -0.018807 -0.039038 0.003758
v -0.017815 -0.043298 0.003758
v -0.017815 -0.043298 0.00033
v 0.008394 -0.037298 0.004342
v 0.008394 -0.040264 0.004342
v 0.001042 -0.040476 0.004342
v 0.001042 -0.036862 0.004342
v 0.001042 -0.036862 0.004342
v 0.001042 -0.040476 0.004342
v -0.002118 -0.040856 0.006395
v -0.002118 -0.036482 0.006395
v 0.001042 -0.036862 0.004342
v -0.002118 -0.036482 0.006395
v -0.002118 -0.036482 -0.002307
v 0.001042 -0.036862 -0.001136
v 0.008394 -0.037298 -0.001136
v 0.008394 -0.037298 0.004342
v -0.002118 -0.040856 -0.002307
v -0.002118 -0.036482 -0.002307
v -0.007878 -0.036482 -0.002307
v -0.007878 -0.040856 -0.002307
v -0.015679 -0.038309 -0.002307
v -0.014687 -0.04257 -0.002307
v -0.018807 -0.039038 0.00033
v -0.017815 -0.043298 0.00033
v -0.014687 -0.04257 -0.002307
v -0.015679 -0.038309 -0.002307
v -0.018807 -0.039038 0.003758
v -0.015679 -0.038309 0.006395
v -0.014687 -0.04257 0.006395
v -0.017815 -0.043298 0.003758
v -0.002118 -0.040856 0.006395
v -0.002118 -0.040856 -0.002307
v -0.007878 -0.040856 -0.002307
v -0.007878 -0.040856 0.006395
v -0.018807 -0.039038 0.00033
v -0.015679 -0.038309 0.006395
v -0.018807 -0.039038 0.003758
v -0.015679 -0.038309 -0.002307
v -0.007878 -0.036482 -0.002307
v -0.007878 -0.036482 0.006395
v -0.017815 -0.043298 0.003758
v -0.014687 -0.04257 -0.002307
v -0.017815 -0.043298 0.00033
v -0.014687 -0.04257 0.006395
v -0.007878 -0.040856 0.006395
v -0.007878 -0.040856 -0.002307
vt 0 0
vt 0 0
vt 0 0
vt 0 0
vt 0 0
vt 0 0
vt 0 0
vt 0 0
vt 0 0
vt 0 0
vt 0 0
vt 0 0
vt 0 0
vt 0 0
vt 0 0
vt 0 0
vt 0 0
vt 0 0
vt 0 0
vt 0 0
vt 0 0
vt 0 0
vt 0 0
vt 0 0
vt 0 0
vt 0 0
vt 0 0
vt 0 0
vt 0 0
vt 0 0
vt 0 0
vt 0 0
vt 0 0
vt 0 0
vt 0 0
vt 0 0
vt 0 0
vt 0 0
vt 0 0
vt 0 0
vt 0 0
vt 0 0
vt 0 0
vt 0 0
vt 0 0
vt 0 0
vt 0 0
vt 0 0
vt 0 0
vt 0 0
vt 0 0
vt 0 0
vt 0 0
vt 0 0
vt 0 0
vt 0 0
vt 0 0
vt 0 0
vt 0 0
vt 0 0
vt 0 0
vt 0 0
vt 0 0
vt 0 0
vt 0 0
vt 0 0
vt 0 0
vt 0 0
vt 0 0
vt 0 0
vt 0 0
vt 0 0
vt 0 0
vt 0 0
vt 0 0
vt 0 0
vt 0 0
vt 0 0
vt 0 0
vt 0 0
vt 0 0
vt 0 0
vt 0 0
vt 0 0
vt 0 0
vt 0 0
vt 0 0
vt 0 0
vt 0 0
vt 0 0
vt 0 0
vt 0 0
vt 0 0
vt 0 0
vt 0 0
vt 0 0
vt 0 0
vt 0 0
vt 0 0
vt 0 0
vt 0 0
vt 0 0
vt 0 0
vt 0 0
vt 0 0
vt 0.170962 0.655178
vt 0.675187 0.655178
vt 1 0
vt 1 1
vt 0.675187 0.803568
vt 0 1
vt 0.170962 0.803568
vt 0 0
vt 0 0
vt 0 0
vt 0 0
vt 0 0
vt 0 0
vt 0 0
vt 0 0
vt 0 0
vt 0 0
vt 0 0
vt 0 0
vt 0 0
vt 0 0
vt 0 0
vt 0 0
vt 0.625 0.25
vt 0.375 0.25
vt 0.375 0.25
vt 0.625 0.25
vt 0.375 0.293737
vt 0.375 0.25
vt 0.625 0.25
vt 0.625 0.293737
vt 0.625 1
vt 0.625 1
vt 0.375 1
vt 0.375 1
vt 0.875 0.75
vt 0.875 0.5
vt 0.875 0.5
vt 0.875 0.75
vt 0.875 0.75
vt 0.875 0.5
vt 0.125 0.5
vt 0.168737 0.5
vt 0.168737 0.75
vt 0.125 0.75
vt 0.125 0.75
vt 0.125 0.75
vt 0.125 0.5
vt 0.125 0.5
vt 0.438587 0
vt 0.561413 0
vt 0.561413 0.25
vt 0.438587 0.25
vt 0.831263 0.75
vt 0.831263 0.5
vt 0.875 0.5
vt 0.875 0.75
vt 0.875 0.75
vt 0.875 0.5
vt 0.875 0.5
vt 0.875 0.75
vt 0.625 1
vt 0.625 1
vt 0.375 1
vt 0.375 1
vt 0.375 0.956263
vt 0.625 0.956263
vt 0.125 0.5
vt 0.125 0.75
vt 0.125 0.75
vt 0.125 0.5
vt 0.125 0.75
vt 0.125 0.5
vt 0.438587 0
vt 0.438587 0.25
vt 0.375 0.25
vt 0.375 0
vt 0.561413 0
vt 0.625 0
vt 0.625 0.25
vt 0.561413 0.25
vt 0.625 0.25
vt 0.375 0.25
vt 0.375 0.25
vt 0.625 0.25
vt 0.438587 1
vt 0.625 1
vt 0.561413 1
vt 0.375 1
vt 0.375 1
vt 0.625 1
vt 0.561413 0.25
vt 0.375 0.25
vt 0.438587 0.25
vt 0.625 0.25
vt 0.625 0.25
vt 0.375 0.25
vn 0 0 -1
vn 0 0 -1
vn 0 0 -1
vn 0 0 -1
vn 0 0 -1
vn 0 0 -1
vn 1 0 0
vn 1 0 0
vn 1 0 0
vn 1 0 0
vn 1 0 0
vn 1 0 0
vn 0 -1 0
vn 0 -1 0
vn 0 -1 0
vn 0 -1 0
vn 0 -1 0
vn 0 -1 0
vn 0 -1 0
vn 0 -1 0
vn 0 -1 0
vn 0 -1 0
vn 0 -1 0
vn 0 -1 0
vn 0 -1 0
vn 0 -1 0
vn 0 -1 0
vn 0 -1 0
vn 0 -1 0
vn 0 -1 0
vn 0 0 1
vn 0 0 1
vn 0 0 1
vn 0 0 1
vn 0 0 1
vn 0 0 1
vn 0.6975779 0 0.7165089
vn 0.6975779 0 0.7165089
vn 0.6975779 0 0.7165089
vn 0.6975779 0 0.7165089
vn 0.6975769 0 0.7165099
vn 0.6975769 0 0.7165099
vn -0.7316165 0 0.6817164
vn -0.7316169 0 0.681716
vn -0.7316169 0 0.681716
vn -0.731616 0 0.681717
vn -0.7316179 0 0.681715
vn -0.7316179 0 0.681715
vn 0 1 0
vn 0 1 0
vn 0 1 0
vn 0 1 0
vn 0 0.7401528 0.6724388
vn 0 0.7401533 0.6724383
vn 0 0.7401533 0.6724383
vn 0 0.7401533 0.6724383
vn 0 0.7401528 0.6724388
vn 0 0.7401533 0.6724383
vn -0.9260744 0.3773412 0
vn -0.9260744 0.3773412 0
vn -0.9260744 0.3773412 0
vn -0.9260744 0.3773412 0
vn 0 0 -1
vn 0 0 -1
vn 0 0 -1
vn 0 0 -1
vn 0 0 -1
vn 0 0 -1
vn 0 0 -1
vn 0 0 -1
vn 0 0 -1
vn 0 0 -1
vn 0 0 -1
vn 0 0 -1
vn 0 0 -1
vn 0 0 -1
vn 1 0 0
vn 1 0 0
vn 1 0 0
vn 1 0 0
vn 1 0 0
vn 1 0 0
vn 1 0 0
vn 1 0 0
vn -1 0 0
vn -1 0 0
vn -1 0 0
vn -1 0 0
vn -1 0 0
vn -1 0 0
vn -1 0 0
vn -1 0 0
vn 0 -1 0
vn 0 -1 0
vn 0 -1 0
vn 0 -1 0
vn 0 0 -1
vn 0 0 -1
vn 0 0 -1
vn 0 0 -1
vn -1 0 0
vn -1 0 0
vn -1 0 0
vn -1 0 0
vn -1 0 0
vn -1 0 0
vn -1 0 0
vn -1 0 0
vn -1 0 0
vn -1 0 0
vn -1 0 0
vn -1 0 0
vn -0.413322 0 0.9105849
vn -0.413322 0 0.9105849
vn -0.4133232 0 0.9105844
vn -0.4133232 0 0.9105844
vn 0.9295033 0 0.3688141
vn 0.9295033 0 0.3688141
vn 0.9295033 0 0.3688141
vn 0.9295033 0 0.3688141
vn 0.9295033 0 0.3688141
vn 0.9295033 0 0.3688141
vn -0.9574455 0 0.2886142
vn -0.9574456 0 0.2886139
vn -0.9574456 0 0.2886139
vn -0.9574456 0 0.2886139
vn -0.9574456 0 0.2886139
vn -0.9574456 0 0.2886139
vn 0.119377 -0.992849 0
vn 0.119377 -0.992849 0
vn 0.119377 -0.992849 0
vn 0.119377 -0.992849 0
vn 0.02879701 -0.9995853 0
vn 0.02879701 -0.9995853 0
vn 0.02879701 -0.9995853 0
vn 0.02879701 -0.9995853 0
vn 0 1 0
vn 0 1 0
vn 0 1 0
vn 0 1 0
vn 0 0 1
vn 0 0 1
vn 0 0 1
vn 0 0 1
vn 0 0 1
vn 0 0 1
vn 0 0 -1
vn 0 0 -1
vn 0 0 -1
vn 0 0 -1
vn 0.347265 0 -0.937767
vn 0.347265 0 -0.937767
vn 0.347265 0 -0.937767
vn 0.3472641 0 -0.9377674
vn -0.9739204 -0.2268901 0
vn -0.9739202 -0.226891 0
vn -0.9739204 -0.2268901 0
vn -0.9739204 -0.2268901 0
vn 0 0 1
vn 0 0 1
vn 0 0 1
vn 0 0 1
vn 0.544649 0 0.8386641
vn 0.5446479 0 0.8386648
vn 0.544649 0 0.8386641
vn 0.544649 0 0.8386641
vn 0.09394801 0.9955771 0
vn 0.119378 0.9928489 0
vn 0.119378 0.9928489 0
vn 0.09234204 0.9957274 0
vn 0.05914802 0.9982493 0
vn 0.05914802 0.9982493 0
vn 0 0 -1
vn 0 0 -1
vn 0 0 -1
vn 0 0 -1
vn 0 0 -1
vn 0 0 -1
vn -0.617937 -0.143958 -0.7729359
vn -0.6179371 -0.143957 -0.7729361
vn -0.617937 -0.143958 -0.7729359
vn -0.617937 -0.143958 -0.7729359
vn -0.6179363 -0.1439581 0.7729364
vn -0.6179358 -0.143958 0.7729368
vn -0.6179363 -0.1439581 0.7729364
vn -0.617937 -0.143958 0.7729359
vn 0 -1 0
vn 0 -1 0
vn 0 -1 0
vn 0 -1 0
vn -0.226892 0.9739199 0
vn -0.227638 0.9737458 0
vn -0.2268929 0.9739197 0
vn -0.227638 0.9737458 0
vn -0.2280579 0.9736476 0
vn -0.2280569 0.9736477 0
vn 0.2268901 -0.9739204 0
vn 0.237857 -0.9713002 0
vn 0.2268901 -0.9739204 0
vn 0.237857 -0.9713002 0
vn 0.2440121 -0.9697722 0
vn 0.2440121 -0.9697722 0
g Bolt_0
f 3/3/3 2/2/2 1/1/1
f 4/4/4 3/3/3 1/1/1
f 1/1/1 2/2/2 5/5/5
f 2/2/2 6/6/6 5/5/5
f 9/9/9 8/8/8 7/7/7
f 10/10/10 9/9/9 7/7/7
f 7/7/7 8/8/8 11/11/11
f 8/8/8 12/12/12 11/11/11
f 15/15/15 14/14/14 13/13/13
f 16/16/16 15/15/15 13/13/13
f 19/19/19 18/18/18 17/17/17
f 20/20/20 19/19/19 17/17/17
f 20/20/20 17/17/17 21/21/21
f 22/22/22 20/20/20 21/21/21
f 22/22/22 21/21/21 23/23/23
f 21/21/21 24/24/24 23/23/23
f 24/24/24 25/25/25 23/23/23
f 26/26/26 22/22/22 23/23/23
f 27/27/27 22/22/22 26/26/26
f 28/28/28 27/27/27 26/26/26
f 21/21/21 29/29/29 24/24/24
f 29/29/29 30/30/30 24/24/24
f 33/33/33 32/32/32 31/31/31
f 34/34/34 33/33/33 31/31/31
f 31/31/31 32/32/32 35/35/35
f 32/32/32 36/36/36 35/35/35
f 39/39/39 38/38/38 37/37/37
f 40/40/40 39/39/39 37/37/37
f 38/38/38 39/39/39 41/41/41
f 39/39/39 42/42/42 41/41/41
f 45/45/45 44/44/44 43/43/43
f 46/46/46 45/45/45 43/43/43
f 45/45/45 47/47/47 44/44/44
f 47/47/47 48/48/48 44/44/44
f 51/51/51 50/50/50 49/49/49
f 52/52/52 51/51/51 49/49/49
f 55/55/55 54/54/54 53/53/53
f 56/56/56 55/55/55 53/53/53
f 53/53/53 54/54/54 57/57/57
f 54/54/54 58/58/58 57/57/57
f 61/61/61 60/60/60 59/59/59
f 62/62/62 61/61/61 59/59/59
f 65/65/65 64/64/64 63/63/63
f 66/66/66 64/64/64 65/65/65
f 67/67/67 65/65/65 63/63/63
f 63/63/63 64/64/64 68/68/68
f 64/64/64 69/69/69 68/68/68
f 69/69/69 70/70/70 68/68/68
f 70/70/70 71/71/71 68/68/68
f 70/70/70 72/72/72 71/71/71
f 72/72/72 73/73/73 71/71/71
f 72/72/72 74/74/74 73/73/73
f 74/74/74 75/75/75 73/73/73
f 76/76/76 66/66/66 65/65/65
f 79/79/79 78/78/78 77/77/77
f 80/80/80 79/79/79 77/77/77
f 81/81/81 80/80/80 77/77/77
f 82/82/82 81/81/81 77/77/77
f 79/79/79 83/83/83 78/78/78
f 83/83/83 84/84/84 78/78/78
f 87/87/87 86/86/86 85/85/85
f 88/88/88 87/87/87 85/85/85
f 85/85/85 86/86/86 89/89/89
f 86/86/86 90/90/90 89/89/89
f 90/90/90 91/91/91 89/89/89
f 91/91/91 92/92/92 89/89/89
f 95/95/95 94/94/94 93/93/93
f 96/96/96 95/95/95 93/93/93
f 99/99/99 98/98/98 97/97/97
f 100/100/100 99/99/99 97/97/97
f 103/103/103 102/102/102 101/101/101
f 104/104/104 103/103/103 101/101/101
f 107/107/107 106/106/106 105/105/105
f 108/108/108 107/107/107 105/105/105
f 109/109/109 107/107/107 108/108/108
f 110/110/110 107/107/107 109/109/109
f 109/109/109 111/111/111 110/110/110
f 111/111/111 105/105/105 106/106/106
f 106/106/106 112/112/112 111/111/111
f 110/110/110 111/111/111 112/112/112
f 115/115/115 114/114/114 113/113/113
f 116/116/116 115/115/115 113/113/113
f 119/119/119 118/118/118 117/117/117
f 120/120/120 119/119/119 117/117/117
f 119/119/119 120/120/120 121/121/121
f 122/122/122 119/119/119 121/121/121
f 125/125/125 124/124/124 123/123/123
f 126/126/126 125/125/125 123/123/123
f 126/126/126 123/123/123 127/127/127
f 128/128/128 126/126/126 127/127/127
f 131/131/131 130/130/130 129/129/129
f 132/132/132 131/131/131 129/129/129
f 135/135/135 134/134/134 133/133/133
f 136/136/136 135/135/135 133/133/133
f 139/139/139 138/138/138 137/137/137
f 140/140/140 139/139/139 137/137/137
f 143/143/143 142/142/142 141/141/141
f 144/144/144 143/143/143 141/141/141
f 144/144/144 145/145/145 143/143/143
f 145/145/145 146/146/146 143/143/143
f 149/149/149 148/148/148 147/147/147
f 150/150/150 149/149/149 147/147/147
f 153/153/153 152/152/152 151/151/151
f 154/154/154 153/153/153 151/151/151
f 157/157/157 156/156/156 155/155/155
f 158/158/158 157/157/157 155/155/155
f 161/161/161 160/160/160 159/159/159
f 162/162/162 161/161/161 159/159/159
f 165/165/165 164/164/164 163/163/163
f 166/166/166 165/165/165 163/163/163
f 169/169/169 168/168/168 167/167/167
f 170/170/170 169/169/169 167/167/167
f 170/170/170 167/167/167 171/171/171
f 167/167/167 172/172/172 171/171/171
f 175/175/175 174/174/174 173/173/173
f 176/176/176 175/175/175 173/173/173
f 177/177/177 175/175/175 176/176/176
f 178/178/178 177/177/177 176/176/176
f 181/181/181 180/180/180 179/179/179
f 182/182/182 181/181/181 179/179/179
f 185/185/185 184/184/184 183/183/183
f 186/186/186 185/185/185 183/183/183
f 189/189/189 188/188/188 187/187/187
f 190/190/190 189/189/189 187/187/187
f 193/193/193 192/192/192 191/191/191
f 191/191/191 192/192/192 194/194/194
f 194/194/194 192/192/192 195/195/195
f 196/196/196 195/195/195 192/192/192
f 199/199/199 198/198/198 197/197/197
f 197/197/197 198/198/198 200/200/200
f 200/200/200 198/198/198 201/201/201
f 202/202/202 201/201/201 198/198/198
